<?xml version="1.0" encoding="UTF-8" standalone="no"?>
<!DOCTYPE svg PUBLIC "-//W3C//DTD SVG 1.1//EN"
 "http://www.w3.org/Graphics/SVG/1.1/DTD/svg11.dtd">
<!-- Generated by graphviz version 2.49.3 (0)
 -->
<!-- Title: cluster0bioinformatics.py Pages: 1 -->
<svg width="951pt" height="259pt"
 viewBox="0.00 0.00 950.50 259.00" xmlns="http://www.w3.org/2000/svg" xmlns:xlink="http://www.w3.org/1999/xlink">
<g id="graph0" class="graph" transform="scale(1 1) rotate(0) translate(4 255)">
<title>cluster0bioinformatics.py</title>
<polygon fill="white" stroke="transparent" points="-4,4 -4,-255 946.5,-255 946.5,4 -4,4"/>
<text text-anchor="middle" x="471.25" y="-7.8" font-family="DejaVu Sans Mono" font-size="14.00">bioinformatics.py</text>
<g id="clust1" class="cluster">
<title>cluster_1</title>
<polygon fill="purple" stroke="purple" points="164.5,-92 164.5,-144 458.5,-144 458.5,-92 164.5,-92"/>
</g>
<g id="clust2" class="cluster">
<title>cluster_KEY</title>
<polygon fill="none" stroke="black" points="553.5,-31 553.5,-243 934.5,-243 934.5,-31 553.5,-31"/>
<text text-anchor="middle" x="744" y="-227.8" font-family="DejaVu Sans Mono" font-size="14.00">KEY</text>
</g>
<!-- 1 -->
<g id="node1" class="node">
<title>1</title>
<polygon fill="#fffb81" stroke="black" points="545,-213 0,-213 0,-175 545,-175 545,-213"/>
<text text-anchor="start" x="8" y="-197.8" font-family="DejaVu Sans Mono" font-size="14.00">import skbio</text>
<text text-anchor="middle" x="272.5" y="-182.8" font-family="DejaVu Sans Mono" font-size="14.00">concatenated_file.write(&#39;Hello world&#39; + skbio.title + skbio.art)</text>
</g>
<!-- 2 -->
<g id="node2" class="node">
<title>2</title>
<polygon fill="#e552ff" stroke="#e552ff" points="226.5,-136 184.5,-136 184.5,-140 172.5,-140 172.5,-100 226.5,-100 226.5,-136"/>
<polyline fill="none" stroke="#e552ff" points="172.5,-136 184.5,-136 "/>
<text text-anchor="middle" x="199.5" y="-114.3" font-family="DejaVu Sans Mono" font-size="14.00">open</text>
</g>
<!-- 1&#45;&gt;2 -->
<g id="edge1" class="edge">
<title>1&#45;&gt;2</title>
<path fill="none" stroke="black" stroke-dasharray="5,2" d="M254.46,-174.71C245.08,-165.2 233.5,-153.46 223.39,-143.21"/>
<polygon fill="black" stroke="black" points="225.85,-140.73 216.34,-136.07 220.87,-145.64 225.85,-140.73"/>
<text text-anchor="middle" x="268.5" y="-155.8" font-family="DejaVu Sans Mono" font-size="14.00">calls</text>
</g>
<!-- 3 -->
<g id="node3" class="node">
<title>3</title>
<polygon fill="#e552ff" stroke="#e552ff" points="450.5,-136 256.5,-136 256.5,-140 244.5,-140 244.5,-100 450.5,-100 450.5,-136"/>
<polyline fill="none" stroke="#e552ff" points="244.5,-136 256.5,-136 "/>
<text text-anchor="middle" x="347.5" y="-114.3" font-family="DejaVu Sans Mono" font-size="14.00">concatenated_file.write</text>
</g>
<!-- 1&#45;&gt;3 -->
<g id="edge2" class="edge">
<title>1&#45;&gt;3</title>
<path fill="none" stroke="black" stroke-dasharray="5,2" d="M291.04,-174.71C300.67,-165.2 312.57,-153.46 322.96,-143.21"/>
<polygon fill="black" stroke="black" points="325.54,-145.58 330.2,-136.07 320.63,-140.6 325.54,-145.58"/>
<text text-anchor="middle" x="333.5" y="-155.8" font-family="DejaVu Sans Mono" font-size="14.00">calls</text>
</g>
<!-- input -->
<g id="node4" class="node">
<title>input</title>
<polygon fill="#afeeee" stroke="black" points="926.54,-136 838.98,-136 816.46,-100 904.02,-100 926.54,-136"/>
<text text-anchor="middle" x="871.5" y="-114.3" font-family="DejaVu Sans Mono" font-size="14.00">input</text>
</g>
<!-- call -->
<g id="node9" class="node">
<title>call</title>
<polygon fill="#e552ff" stroke="black" points="898.5,-75 856.5,-75 856.5,-79 844.5,-79 844.5,-39 898.5,-39 898.5,-75"/>
<polyline fill="none" stroke="black" points="844.5,-75 856.5,-75 "/>
<text text-anchor="middle" x="871.5" y="-53.3" font-family="DejaVu Sans Mono" font-size="14.00">call</text>
</g>
<!-- input&#45;&gt;call -->
<!-- default -->
<g id="node5" class="node">
<title>default</title>
<polygon fill="#fffb81" stroke="black" points="772.5,-75 698.5,-75 698.5,-39 772.5,-39 772.5,-75"/>
<text text-anchor="middle" x="735.5" y="-53.3" font-family="DejaVu Sans Mono" font-size="14.00">default</text>
</g>
<!-- if -->
<g id="node6" class="node">
<title>if</title>
<polygon fill="#ff6752" stroke="black" points="871.5,-212 841.33,-194 871.5,-176 901.67,-194 871.5,-212"/>
<text text-anchor="middle" x="871.5" y="-190.3" font-family="DejaVu Sans Mono" font-size="14.00">if</text>
</g>
<!-- if&#45;&gt;input -->
<!-- for -->
<g id="node7" class="node">
<title>for</title>
<polygon fill="#ffbe52" stroke="black" points="822.04,-194 806.77,-212 776.23,-212 760.96,-194 776.23,-176 806.77,-176 822.04,-194"/>
<text text-anchor="middle" x="791.5" y="-190.3" font-family="DejaVu Sans Mono" font-size="14.00">for</text>
</g>
<!-- return -->
<g id="node10" class="node">
<title>return</title>
<polygon fill="#98fb98" stroke="black" points="798.29,-136 698.41,-136 672.71,-100 772.59,-100 798.29,-136"/>
<text text-anchor="middle" x="735.5" y="-114.3" font-family="DejaVu Sans Mono" font-size="14.00">return</text>
</g>
<!-- for&#45;&gt;return -->
<!-- while -->
<g id="node8" class="node">
<title>while</title>
<polygon fill="#ffbe52" stroke="black" points="743.06,-194 721.28,-212 677.72,-212 655.94,-194 677.72,-176 721.28,-176 743.06,-194"/>
<text text-anchor="middle" x="699.5" y="-190.3" font-family="DejaVu Sans Mono" font-size="14.00">while</text>
</g>
<!-- return&#45;&gt;default -->
<!-- try -->
<g id="node11" class="node">
<title>try</title>
<polygon fill="orange" stroke="black" points="600.5,-212 562.63,-194 600.5,-176 638.37,-194 600.5,-212"/>
<polyline fill="none" stroke="black" points="573.47,-199.15 573.47,-188.85 "/>
<polyline fill="none" stroke="black" points="589.66,-181.15 611.34,-181.15 "/>
<polyline fill="none" stroke="black" points="627.53,-188.85 627.53,-199.15 "/>
<polyline fill="none" stroke="black" points="611.34,-206.85 589.66,-206.85 "/>
<text text-anchor="middle" x="600.5" y="-190.3" font-family="DejaVu Sans Mono" font-size="14.00">try</text>
</g>
<!-- raise -->
<g id="node12" class="node">
<title>raise</title>
<polygon fill="#98fb98" stroke="black" points="655.19,-123.56 608.5,-136 561.81,-123.56 561.85,-103.44 655.15,-103.44 655.19,-123.56"/>
<text text-anchor="middle" x="608.5" y="-114.3" font-family="DejaVu Sans Mono" font-size="14.00">raise</text>
</g>
<!-- try&#45;&gt;raise -->
</g>
</svg>
