<?xml version="1.0" encoding="UTF-8" standalone="no"?>
<!DOCTYPE svg PUBLIC "-//W3C//DTD SVG 1.1//EN"
 "http://www.w3.org/Graphics/SVG/1.1/DTD/svg11.dtd">
<!-- Generated by graphviz version 2.49.3 (0)
 -->
<!-- Title: cluster0complement.py Pages: 1 -->
<svg width="1545pt" height="965pt"
 viewBox="0.00 0.00 1545.00 965.00" xmlns="http://www.w3.org/2000/svg" xmlns:xlink="http://www.w3.org/1999/xlink">
<g id="graph0" class="graph" transform="scale(1 1) rotate(0) translate(4 961)">
<title>cluster0complement.py</title>
<polygon fill="white" stroke="transparent" points="-4,4 -4,-961 1541,-961 1541,4 -4,4"/>
<text text-anchor="middle" x="768.5" y="-7.8" font-family="DejaVu Sans Mono" font-size="14.00">complement.py</text>
<g id="clust1" class="cluster">
<title>cluster_12</title>
<polygon fill="purple" stroke="purple" points="8,-335 8,-387 164,-387 164,-335 8,-335"/>
</g>
<g id="clust2" class="cluster">
<title>cluster_15</title>
<polygon fill="purple" stroke="purple" points="69,-236 69,-288 139,-288 139,-236 69,-236"/>
</g>
<g id="clust3" class="cluster">
<title>cluster_17</title>
<polygon fill="purple" stroke="purple" points="203,-92 203,-197 483,-197 483,-92 203,-92"/>
</g>
<g id="clust4" class="cluster">
<title>cluster_19</title>
<polygon fill="purple" stroke="purple" points="647,-31 647,-197 763,-197 763,-31 647,-31"/>
</g>
<g id="clust5" class="cluster">
<title>cluster0complement</title>
<polygon fill="none" stroke="black" points="546,-327 546,-949 1140,-949 1140,-327 546,-327"/>
<text text-anchor="middle" x="843" y="-933.8" font-family="DejaVu Sans Mono" font-size="14.00">complement</text>
</g>
<g id="clust6" class="cluster">
<title>cluster_5</title>
<polygon fill="purple" stroke="purple" points="574,-335 574,-387 897,-387 897,-335 574,-335"/>
</g>
<g id="clust7" class="cluster">
<title>cluster_KEY</title>
<polygon fill="none" stroke="black" points="1148,-418 1148,-781.5 1529,-781.5 1529,-418 1148,-418"/>
<text text-anchor="middle" x="1338.5" y="-766.3" font-family="DejaVu Sans Mono" font-size="14.00">KEY</text>
</g>
<!-- 1 -->
<g id="node1" class="node">
<title>1</title>
<polygon fill="#fffb81" stroke="black" points="368.5,-751.5 71.5,-751.5 71.5,-713.5 368.5,-713.5 368.5,-751.5"/>
<text text-anchor="start" x="79.5" y="-736.3" font-family="DejaVu Sans Mono" font-size="14.00">import sys</text>
<text text-anchor="middle" x="220" y="-721.3" font-family="DejaVu Sans Mono" font-size="14.00">def complement(num: str) &#45;&gt;str:...</text>
</g>
<!-- 11 -->
<g id="node2" class="node">
<title>11</title>
<polygon fill="#ff6752" stroke="black" points="220,-530 7.85,-512 220,-494 432.15,-512 220,-530"/>
<text text-anchor="middle" x="220" y="-508.3" font-family="DejaVu Sans Mono" font-size="14.00">if __name__ == &#39;__main__&#39;:</text>
</g>
<!-- 1&#45;&gt;11 -->
<g id="edge14" class="edge">
<title>1&#45;&gt;11</title>
<path fill="none" stroke="black" d="M220,-713.25C220,-674.87 220,-585.65 220,-540.39"/>
<polygon fill="black" stroke="black" points="223.5,-540.14 220,-530.14 216.5,-540.14 223.5,-540.14"/>
</g>
<!-- 12 -->
<g id="node3" class="node">
<title>12</title>
<polygon fill="#fffb81" stroke="black" points="298.5,-463 141.5,-463 141.5,-425 298.5,-425 298.5,-463"/>
<text text-anchor="start" x="149.5" y="-447.8" font-family="DejaVu Sans Mono" font-size="14.00">import doctest</text>
<text text-anchor="middle" x="220" y="-432.8" font-family="DejaVu Sans Mono" font-size="14.00">doctest.testmod()</text>
</g>
<!-- 11&#45;&gt;12 -->
<g id="edge13" class="edge">
<title>11&#45;&gt;12</title>
<path fill="none" stroke="green" d="M220,-493.66C220,-487.54 220,-480.49 220,-473.69"/>
<polygon fill="green" stroke="green" points="223.5,-473.38 220,-463.38 216.5,-473.38 223.5,-473.38"/>
<text text-anchor="middle" x="311" y="-474.8" font-family="DejaVu Sans Mono" font-size="14.00">__name__ == &#39;__main__&#39;</text>
</g>
<!-- 14 -->
<g id="node4" class="node">
<title>14</title>
<polygon fill="#e552ff" stroke="#e552ff" points="156,-379 28,-379 28,-383 16,-383 16,-343 156,-343 156,-379"/>
<polyline fill="none" stroke="#e552ff" points="16,-379 28,-379 "/>
<text text-anchor="middle" x="86" y="-357.3" font-family="DejaVu Sans Mono" font-size="14.00">doctest.testmod</text>
</g>
<!-- 12&#45;&gt;14 -->
<g id="edge1" class="edge">
<title>12&#45;&gt;14</title>
<path fill="none" stroke="black" stroke-dasharray="5,2" d="M189.93,-424.82C170.08,-412.82 143.94,-397.02 122.84,-384.27"/>
<polygon fill="black" stroke="black" points="124.51,-381.19 114.14,-379.01 120.89,-387.18 124.51,-381.19"/>
<text text-anchor="middle" x="187" y="-398.8" font-family="DejaVu Sans Mono" font-size="14.00">calls</text>
</g>
<!-- 15 -->
<g id="node5" class="node">
<title>15</title>
<polygon fill="#ff6752" stroke="black" points="356,-379 174.01,-361 356,-343 537.99,-361 356,-379"/>
<text text-anchor="middle" x="356" y="-357.3" font-family="DejaVu Sans Mono" font-size="14.00">if len(sys.argv) == 3:</text>
</g>
<!-- 12&#45;&gt;15 -->
<g id="edge12" class="edge">
<title>12&#45;&gt;15</title>
<path fill="none" stroke="black" d="M250.52,-424.82C272,-412.03 300.72,-394.92 322.78,-381.79"/>
<polygon fill="black" stroke="black" points="324.67,-384.73 331.47,-376.61 321.09,-378.72 324.67,-384.73"/>
</g>
<!-- 16 -->
<g id="node6" class="node">
<title>16</title>
<polygon fill="#e552ff" stroke="#e552ff" points="131,-280 89,-280 89,-284 77,-284 77,-244 131,-244 131,-280"/>
<polyline fill="none" stroke="#e552ff" points="77,-280 89,-280 "/>
<text text-anchor="middle" x="104" y="-258.3" font-family="DejaVu Sans Mono" font-size="14.00">len</text>
</g>
<!-- 15&#45;&gt;16 -->
<g id="edge2" class="edge">
<title>15&#45;&gt;16</title>
<path fill="none" stroke="black" stroke-dasharray="5,2" d="M292.97,-349.2C248.22,-339.7 187.82,-323.07 140,-296 135.62,-293.52 131.33,-290.42 127.33,-287.11"/>
<polygon fill="black" stroke="black" points="129.38,-284.24 119.59,-280.18 124.71,-289.45 129.38,-284.24"/>
<text text-anchor="middle" x="206" y="-307.8" font-family="DejaVu Sans Mono" font-size="14.00">calls</text>
</g>
<!-- 17 -->
<g id="node7" class="node">
<title>17</title>
<polygon fill="#fffb81" stroke="black" points="562.5,-296 149.5,-296 149.5,-228 562.5,-228 562.5,-296"/>
<text text-anchor="start" x="157.5" y="-280.8" font-family="DejaVu Sans Mono" font-size="14.00">temp = complement(open(sys.argv[1], &#39;r&#39;).read())</text>
<text text-anchor="start" x="157.5" y="-265.8" font-family="DejaVu Sans Mono" font-size="14.00">f = open(sys.argv[2], &#39;w+&#39;)</text>
<text text-anchor="middle" x="356" y="-250.8" font-family="DejaVu Sans Mono" font-size="14.00">f.write(temp + &#39;</text>
<text text-anchor="middle" x="356" y="-235.8" font-family="DejaVu Sans Mono" font-size="14.00">&#39;)</text>
</g>
<!-- 15&#45;&gt;17 -->
<g id="edge7" class="edge">
<title>15&#45;&gt;17</title>
<path fill="none" stroke="green" d="M356,-342.66C356,-332.51 356,-319.21 356,-306.39"/>
<polygon fill="green" stroke="green" points="359.5,-306.28 356,-296.28 352.5,-306.28 359.5,-306.28"/>
<text text-anchor="middle" x="430.5" y="-307.8" font-family="DejaVu Sans Mono" font-size="14.00">len(sys.argv) == 3</text>
</g>
<!-- 19 -->
<g id="node12" class="node">
<title>19</title>
<polygon fill="#fffb81" stroke="black" points="829,-280 581,-280 581,-244 829,-244 829,-280"/>
<text text-anchor="middle" x="705" y="-258.3" font-family="DejaVu Sans Mono" font-size="14.00">print(complement(input(&#39;&#39;)))</text>
</g>
<!-- 15&#45;&gt;19 -->
<g id="edge11" class="edge">
<title>15&#45;&gt;19</title>
<path fill="none" stroke="red" d="M402.93,-347.64C433.23,-339.6 473.49,-328.83 509,-319 551.42,-307.26 598.89,-293.7 636.49,-282.87"/>
<polygon fill="red" stroke="red" points="637.68,-286.17 646.32,-280.04 635.74,-279.45 637.68,-286.17"/>
<text text-anchor="middle" x="640" y="-307.8" font-family="DejaVu Sans Mono" font-size="14.00">(len(sys.argv) != 3)</text>
</g>
<!-- 23 -->
<g id="node8" class="node">
<title>23</title>
<polygon fill="#e552ff" stroke="#e552ff" points="310.5,-189 223.5,-189 223.5,-193 211.5,-193 211.5,-153 310.5,-153 310.5,-189"/>
<polyline fill="none" stroke="#e552ff" points="211.5,-189 223.5,-189 "/>
<text text-anchor="middle" x="261" y="-167.3" font-family="DejaVu Sans Mono" font-size="14.00">complement</text>
</g>
<!-- 17&#45;&gt;23 -->
<g id="edge3" class="edge">
<title>17&#45;&gt;23</title>
<path fill="none" stroke="black" stroke-dasharray="5,2" d="M318.21,-227.58C315.42,-225.03 312.66,-222.48 310,-220 301.91,-212.44 293.23,-204.04 285.46,-196.4"/>
<polygon fill="black" stroke="black" points="287.62,-193.62 278.04,-189.08 282.7,-198.6 287.62,-193.62"/>
<text text-anchor="middle" x="331" y="-208.8" font-family="DejaVu Sans Mono" font-size="14.00">calls</text>
</g>
<!-- 25 -->
<g id="node9" class="node">
<title>25</title>
<polygon fill="#e552ff" stroke="#e552ff" points="383,-189 341,-189 341,-193 329,-193 329,-153 383,-153 383,-189"/>
<polyline fill="none" stroke="#e552ff" points="329,-189 341,-189 "/>
<text text-anchor="middle" x="356" y="-167.3" font-family="DejaVu Sans Mono" font-size="14.00">open</text>
</g>
<!-- 17&#45;&gt;25 -->
<g id="edge4" class="edge">
<title>17&#45;&gt;25</title>
<path fill="none" stroke="black" stroke-dasharray="5,2" d="M356,-227.86C356,-218.58 356,-208.6 356,-199.68"/>
<polygon fill="black" stroke="black" points="359.5,-199.44 356,-189.44 352.5,-199.44 359.5,-199.44"/>
<text text-anchor="middle" x="377" y="-208.8" font-family="DejaVu Sans Mono" font-size="14.00">calls</text>
</g>
<!-- 26 -->
<g id="node10" class="node">
<title>26</title>
<polygon fill="#e552ff" stroke="#e552ff" points="475,-189 413,-189 413,-193 401,-193 401,-153 475,-153 475,-189"/>
<polyline fill="none" stroke="#e552ff" points="401,-189 413,-189 "/>
<text text-anchor="middle" x="438" y="-167.3" font-family="DejaVu Sans Mono" font-size="14.00">f.write</text>
</g>
<!-- 17&#45;&gt;26 -->
<g id="edge5" class="edge">
<title>17&#45;&gt;26</title>
<path fill="none" stroke="black" stroke-dasharray="5,2" d="M394.7,-227.55C397.23,-225.05 399.68,-222.52 402,-220 408.38,-213.05 414.76,-205.02 420.33,-197.53"/>
<polygon fill="black" stroke="black" points="423.41,-199.24 426.45,-189.09 417.74,-195.12 423.41,-199.24"/>
<text text-anchor="middle" x="434" y="-208.8" font-family="DejaVu Sans Mono" font-size="14.00">calls</text>
</g>
<!-- 24 -->
<g id="node11" class="node">
<title>24</title>
<polygon fill="#e552ff" stroke="#e552ff" points="306.5,-136 227.5,-136 227.5,-140 215.5,-140 215.5,-100 306.5,-100 306.5,-136"/>
<polyline fill="none" stroke="#e552ff" points="215.5,-136 227.5,-136 "/>
<text text-anchor="middle" x="261" y="-114.3" font-family="DejaVu Sans Mono" font-size="14.00">open.read</text>
</g>
<!-- 23&#45;&gt;24 -->
<g id="edge6" class="edge">
<title>23&#45;&gt;24</title>
<path fill="none" stroke="black" d="M261,-152.73C261,-150.66 261,-148.5 261,-146.32"/>
<polygon fill="black" stroke="black" points="264.5,-146.25 261,-136.25 257.5,-146.25 264.5,-146.25"/>
</g>
<!-- 20 -->
<g id="node13" class="node">
<title>20</title>
<polygon fill="#e552ff" stroke="#e552ff" points="734,-189 688,-189 688,-193 676,-193 676,-153 734,-153 734,-189"/>
<polyline fill="none" stroke="#e552ff" points="676,-189 688,-189 "/>
<text text-anchor="middle" x="705" y="-167.3" font-family="DejaVu Sans Mono" font-size="14.00">print</text>
</g>
<!-- 19&#45;&gt;20 -->
<g id="edge8" class="edge">
<title>19&#45;&gt;20</title>
<path fill="none" stroke="black" stroke-dasharray="5,2" d="M705,-243.84C705,-231.28 705,-213.98 705,-199.5"/>
<polygon fill="black" stroke="black" points="708.5,-199.11 705,-189.11 701.5,-199.11 708.5,-199.11"/>
<text text-anchor="middle" x="726" y="-208.8" font-family="DejaVu Sans Mono" font-size="14.00">calls</text>
</g>
<!-- 21 -->
<g id="node14" class="node">
<title>21</title>
<polygon fill="#e552ff" stroke="#e552ff" points="754.5,-136 667.5,-136 667.5,-140 655.5,-140 655.5,-100 754.5,-100 754.5,-136"/>
<polyline fill="none" stroke="#e552ff" points="655.5,-136 667.5,-136 "/>
<text text-anchor="middle" x="705" y="-114.3" font-family="DejaVu Sans Mono" font-size="14.00">complement</text>
</g>
<!-- 20&#45;&gt;21 -->
<g id="edge9" class="edge">
<title>20&#45;&gt;21</title>
<path fill="none" stroke="black" d="M705,-152.73C705,-150.66 705,-148.5 705,-146.32"/>
<polygon fill="black" stroke="black" points="708.5,-146.25 705,-136.25 701.5,-146.25 708.5,-146.25"/>
</g>
<!-- 22 -->
<g id="node15" class="node">
<title>22</title>
<polygon fill="#e552ff" stroke="#e552ff" points="734,-75 688,-75 688,-79 676,-79 676,-39 734,-39 734,-75"/>
<polyline fill="none" stroke="#e552ff" points="676,-75 688,-75 "/>
<text text-anchor="middle" x="705" y="-53.3" font-family="DejaVu Sans Mono" font-size="14.00">input</text>
</g>
<!-- 21&#45;&gt;22 -->
<g id="edge10" class="edge">
<title>21&#45;&gt;22</title>
<path fill="none" stroke="black" d="M705,-99.93C705,-95.45 705,-90.49 705,-85.61"/>
<polygon fill="black" stroke="black" points="708.5,-85.23 705,-75.23 701.5,-85.23 708.5,-85.23"/>
</g>
<!-- 3 -->
<g id="node16" class="node">
<title>3</title>
<polygon fill="#fffb81" stroke="black" points="1132,-918 554,-918 554,-547 1132,-547 1132,-918"/>
<text text-anchor="start" x="562" y="-902.8" font-family="DejaVu Sans Mono" font-size="14.00">&quot;&quot;&quot;</text>
<text text-anchor="start" x="562" y="-887.8" font-family="DejaVu Sans Mono" font-size="14.00"> &#160;&#160;&#160;Purpose: &#160;&#160;&#160;&#160;&#160;&#160;&#160;Converts a DNA sequence to its complement</text>
<text text-anchor="start" x="562" y="-872.8" font-family="DejaVu Sans Mono" font-size="14.00"> &#160;&#160;&#160;Parameters: &#160;&#160;&#160;&#160;Sequence of DNA as a python str</text>
<text text-anchor="start" x="562" y="-857.8" font-family="DejaVu Sans Mono" font-size="14.00"> &#160;&#160;&#160;User Input: &#160;&#160;&#160;&#160;No</text>
<text text-anchor="start" x="562" y="-842.8" font-family="DejaVu Sans Mono" font-size="14.00"> &#160;&#160;&#160;Prints: &#160;&#160;&#160;&#160;&#160;&#160;&#160;&#160;Nothing</text>
<text text-anchor="start" x="562" y="-827.8" font-family="DejaVu Sans Mono" font-size="14.00"> &#160;&#160;&#160;Returns: &#160;&#160;&#160;&#160;&#160;&#160;&#160;Result new string of DNA</text>
<text text-anchor="start" x="562" y="-812.8" font-family="DejaVu Sans Mono" font-size="14.00"> &#160;&#160;&#160;Modifies: &#160;&#160;&#160;&#160;&#160;&#160;Nothing</text>
<text text-anchor="start" x="562" y="-797.8" font-family="DejaVu Sans Mono" font-size="14.00"> &#160;&#160;&#160;Calls: &#160;&#160;&#160;&#160;&#160;&#160;&#160;&#160;&#160;Basic python only</text>
<text text-anchor="start" x="562" y="-782.8" font-family="DejaVu Sans Mono" font-size="14.00"> &#160;&#160;&#160;Tests: &#160;&#160;&#160;&#160;&#160;&#160;&#160;&#160;&#160;./unit_tests/*</text>
<text text-anchor="start" x="562" y="-767.8" font-family="DejaVu Sans Mono" font-size="14.00"> &#160;&#160;&#160;Status: &#160;&#160;&#160;&#160;&#160;&#160;&#160;&#160;Done!</text>
<text text-anchor="start" x="562" y="-736.8" font-family="DejaVu Sans Mono" font-size="14.00"> &#160;&#160;&#160;Usage illustrated via some simple doctests:</text>
<text text-anchor="start" x="562" y="-721.8" font-family="DejaVu Sans Mono" font-size="14.00"> &#160;&#160;&#160;&gt;&gt;&gt; complement(&quot;GATTACA&quot;)</text>
<text text-anchor="start" x="562" y="-706.8" font-family="DejaVu Sans Mono" font-size="14.00"> &#160;&#160;&#160;&#39;CTAATGT&#39;</text>
<text text-anchor="start" x="562" y="-675.8" font-family="DejaVu Sans Mono" font-size="14.00"> &#160;&#160;&#160;&gt;&gt;&gt; complement(&quot;CAT&quot;)</text>
<text text-anchor="start" x="562" y="-660.8" font-family="DejaVu Sans Mono" font-size="14.00"> &#160;&#160;&#160;&#39;GTA&#39;</text>
<text text-anchor="start" x="562" y="-629.8" font-family="DejaVu Sans Mono" font-size="14.00"> &#160;&#160;&#160;&gt;&gt;&gt; print(&quot;Unlike other frameworks, doctest does stdout easily&quot;)</text>
<text text-anchor="start" x="562" y="-614.8" font-family="DejaVu Sans Mono" font-size="14.00"> &#160;&#160;&#160;Unlike other frameworks, doctest does stdout easily</text>
<text text-anchor="start" x="562" y="-599.8" font-family="DejaVu Sans Mono" font-size="14.00"> &#160;&#160;&#160;&quot;&quot;&quot;</text>
<text text-anchor="middle" x="843" y="-584.8" font-family="DejaVu Sans Mono" font-size="14.00">comp = {&#39; &#39;: &#39; &#39;, &#39;A&#39;: &#39;T&#39;, &#39;C&#39;: &#39;G&#39;, &#39;G&#39;: &#39;C&#39;, &#39;T&#39;: &#39;A&#39;, &#39;</text>
<text text-anchor="start" x="562" y="-569.8" font-family="DejaVu Sans Mono" font-size="14.00">&#39;: &#39;&#39;}</text>
<text text-anchor="middle" x="843" y="-554.8" font-family="DejaVu Sans Mono" font-size="14.00">complement_sequence = []</text>
</g>
<!-- 4 -->
<g id="node17" class="node">
<title>4</title>
<polygon fill="#ffbe52" stroke="black" points="924.12,-512 877.56,-530 784.44,-530 737.88,-512 784.44,-494 877.56,-494 924.12,-512"/>
<text text-anchor="middle" x="831" y="-508.3" font-family="DejaVu Sans Mono" font-size="14.00">for i in num:</text>
</g>
<!-- 3&#45;&gt;4 -->
<g id="edge20" class="edge">
<title>3&#45;&gt;4</title>
<path fill="none" stroke="black" d="M832.85,-546.66C832.73,-544.45 832.61,-542.32 832.5,-540.27"/>
<polygon fill="black" stroke="black" points="835.99,-540.05 831.95,-530.26 829,-540.43 835.99,-540.05"/>
</g>
<!-- 5 -->
<g id="node18" class="node">
<title>5</title>
<polygon fill="#fffb81" stroke="black" points="878,-463 556,-463 556,-425 878,-425 878,-463"/>
<text text-anchor="start" x="564" y="-447.8" font-family="DejaVu Sans Mono" font-size="14.00">complement_sequence.append(comp[i])</text>
<text text-anchor="middle" x="717" y="-432.8" font-family="DejaVu Sans Mono" font-size="14.00">result = &#39;&#39;.join(complement_sequence)</text>
</g>
<!-- 4&#45;&gt;5 -->
<g id="edge18" class="edge">
<title>4&#45;&gt;5</title>
<path fill="none" stroke="green" d="M768.01,-500.26C758.35,-496.76 748.97,-492.13 741,-486 736.14,-482.26 732.08,-477.24 728.77,-471.99"/>
<polygon fill="green" stroke="green" points="731.78,-470.2 723.88,-463.14 725.65,-473.58 731.78,-470.2"/>
<text text-anchor="middle" x="753.5" y="-474.8" font-family="DejaVu Sans Mono" font-size="14.00">num</text>
</g>
<!-- 6 -->
<g id="node21" class="node">
<title>6</title>
<polygon fill="#98fb98" stroke="black" points="1132.33,-462 944.09,-462 895.67,-426 1083.91,-426 1132.33,-462"/>
<text text-anchor="middle" x="1014" y="-440.3" font-family="DejaVu Sans Mono" font-size="14.00">return result</text>
</g>
<!-- 4&#45;&gt;6 -->
<g id="edge19" class="edge">
<title>4&#45;&gt;6</title>
<path fill="none" stroke="green" d="M878.13,-494C902.26,-485.3 931.83,-474.64 957.21,-465.48"/>
<polygon fill="green" stroke="green" points="958.5,-468.74 966.71,-462.05 956.12,-462.15 958.5,-468.74"/>
</g>
<!-- 5&#45;&gt;4 -->
<g id="edge17" class="edge">
<title>5&#45;&gt;4</title>
<path fill="none" stroke="black" d="M755.22,-463.04C760.24,-465.62 765.28,-468.31 770,-471 779.24,-476.27 788.99,-482.39 797.91,-488.23"/>
<polygon fill="black" stroke="black" points="796.24,-491.32 806.51,-493.94 800.11,-485.49 796.24,-491.32"/>
</g>
<!-- 7 -->
<g id="node19" class="node">
<title>7</title>
<polygon fill="#e552ff" stroke="#e552ff" points="812.5,-379 593.5,-379 593.5,-383 581.5,-383 581.5,-343 812.5,-343 812.5,-379"/>
<polyline fill="none" stroke="#e552ff" points="581.5,-379 593.5,-379 "/>
<text text-anchor="middle" x="697" y="-357.3" font-family="DejaVu Sans Mono" font-size="14.00">complement_sequence.append</text>
</g>
<!-- 5&#45;&gt;7 -->
<g id="edge15" class="edge">
<title>5&#45;&gt;7</title>
<path fill="none" stroke="black" stroke-dasharray="5,2" d="M712.46,-424.62C709.86,-414.08 706.54,-400.65 703.65,-388.94"/>
<polygon fill="black" stroke="black" points="707.04,-388.07 701.25,-379.2 700.25,-389.75 707.04,-388.07"/>
<text text-anchor="middle" x="729" y="-398.8" font-family="DejaVu Sans Mono" font-size="14.00">calls</text>
</g>
<!-- 8 -->
<g id="node20" class="node">
<title>8</title>
<polygon fill="#e552ff" stroke="#e552ff" points="889,-379 843,-379 843,-383 831,-383 831,-343 889,-343 889,-379"/>
<polyline fill="none" stroke="#e552ff" points="831,-379 843,-379 "/>
<text text-anchor="middle" x="860" y="-357.3" font-family="DejaVu Sans Mono" font-size="14.00">.join</text>
</g>
<!-- 5&#45;&gt;8 -->
<g id="edge16" class="edge">
<title>5&#45;&gt;8</title>
<path fill="none" stroke="black" stroke-dasharray="5,2" d="M752.93,-424.88C773.42,-414.28 799.44,-400.4 822,-387 823.45,-386.14 824.92,-385.25 826.39,-384.34"/>
<polygon fill="black" stroke="black" points="828.27,-387.3 834.86,-379 824.53,-381.38 828.27,-387.3"/>
<text text-anchor="middle" x="829" y="-398.8" font-family="DejaVu Sans Mono" font-size="14.00">calls</text>
</g>
<!-- input -->
<g id="node22" class="node">
<title>input</title>
<polygon fill="#afeeee" stroke="black" points="1521.04,-530 1433.48,-530 1410.96,-494 1498.52,-494 1521.04,-530"/>
<text text-anchor="middle" x="1466" y="-508.3" font-family="DejaVu Sans Mono" font-size="14.00">input</text>
</g>
<!-- call -->
<g id="node27" class="node">
<title>call</title>
<polygon fill="#e552ff" stroke="black" points="1493,-462 1451,-462 1451,-466 1439,-466 1439,-426 1493,-426 1493,-462"/>
<polyline fill="none" stroke="black" points="1439,-462 1451,-462 "/>
<text text-anchor="middle" x="1466" y="-440.3" font-family="DejaVu Sans Mono" font-size="14.00">call</text>
</g>
<!-- input&#45;&gt;call -->
<!-- default -->
<g id="node23" class="node">
<title>default</title>
<polygon fill="#fffb81" stroke="black" points="1367,-462 1293,-462 1293,-426 1367,-426 1367,-462"/>
<text text-anchor="middle" x="1330" y="-440.3" font-family="DejaVu Sans Mono" font-size="14.00">default</text>
</g>
<!-- if -->
<g id="node24" class="node">
<title>if</title>
<polygon fill="#ff6752" stroke="black" points="1466,-750.5 1435.83,-732.5 1466,-714.5 1496.17,-732.5 1466,-750.5"/>
<text text-anchor="middle" x="1466" y="-728.8" font-family="DejaVu Sans Mono" font-size="14.00">if</text>
</g>
<!-- if&#45;&gt;input -->
<!-- for -->
<g id="node25" class="node">
<title>for</title>
<polygon fill="#ffbe52" stroke="black" points="1416.54,-732.5 1401.27,-750.5 1370.73,-750.5 1355.46,-732.5 1370.73,-714.5 1401.27,-714.5 1416.54,-732.5"/>
<text text-anchor="middle" x="1386" y="-728.8" font-family="DejaVu Sans Mono" font-size="14.00">for</text>
</g>
<!-- return -->
<g id="node28" class="node">
<title>return</title>
<polygon fill="#98fb98" stroke="black" points="1392.79,-530 1292.91,-530 1267.21,-494 1367.09,-494 1392.79,-530"/>
<text text-anchor="middle" x="1330" y="-508.3" font-family="DejaVu Sans Mono" font-size="14.00">return</text>
</g>
<!-- for&#45;&gt;return -->
<!-- while -->
<g id="node26" class="node">
<title>while</title>
<polygon fill="#ffbe52" stroke="black" points="1337.56,-732.5 1315.78,-750.5 1272.22,-750.5 1250.44,-732.5 1272.22,-714.5 1315.78,-714.5 1337.56,-732.5"/>
<text text-anchor="middle" x="1294" y="-728.8" font-family="DejaVu Sans Mono" font-size="14.00">while</text>
</g>
<!-- return&#45;&gt;default -->
<!-- try -->
<g id="node29" class="node">
<title>try</title>
<polygon fill="orange" stroke="black" points="1195,-750.5 1157.13,-732.5 1195,-714.5 1232.87,-732.5 1195,-750.5"/>
<polyline fill="none" stroke="black" points="1167.97,-737.65 1167.97,-727.35 "/>
<polyline fill="none" stroke="black" points="1184.16,-719.65 1205.84,-719.65 "/>
<polyline fill="none" stroke="black" points="1222.03,-727.35 1222.03,-737.65 "/>
<polyline fill="none" stroke="black" points="1205.84,-745.35 1184.16,-745.35 "/>
<text text-anchor="middle" x="1195" y="-728.8" font-family="DejaVu Sans Mono" font-size="14.00">try</text>
</g>
<!-- raise -->
<g id="node30" class="node">
<title>raise</title>
<polygon fill="#98fb98" stroke="black" points="1249.69,-517.56 1203,-530 1156.31,-517.56 1156.35,-497.44 1249.65,-497.44 1249.69,-517.56"/>
<text text-anchor="middle" x="1203" y="-508.3" font-family="DejaVu Sans Mono" font-size="14.00">raise</text>
</g>
<!-- try&#45;&gt;raise -->
</g>
</svg>
